# xmcd
#
# Track frame offsets:
#	150
#	22258
#	48024
#	73437
#	88137
#	111136
#	124154
#	144870
#	164465
#	178296
#
# Disc length: 2801 seconds
#
# Revision: 1
# Processed by: cddbd v1.5.2PL0 Copyright (c) Steve Scherf et al.
# Submitted via: audiograbber 1.83.01
#
DISCID=920aef0a
DTITLE=Frank And The Blue Moons - Deep Dark Blue
DYEAR=2010
DGENRE=Blues
TTITLE0=Cut And Run
TTITLE1=Breaking My Heart
TTITLE2=Dark Side
TTITLE3=Brave Young Lion
TTITLE4=Homesick Blues
TTITLE5=I'm Such A Fool
TTITLE6=Back To Rescue Me
TTITLE7=Heat Of The Night
TTITLE8=Love Don't Come Easy
TTITLE9=Deep Dark Blue
EXTD=
EXTT0=
EXTT1=
EXTT2=
EXTT3=
EXTT4=
EXTT5=
EXTT6=
EXTT7=
EXTT8=
EXTT9=
PLAYORDER=
